# xmcd CD database file
#
# Track frame offsets:
#	150
#	26333
#	51173
#	82475
#	106367
#	139839
#	166218
#
# Disc length: 2716 seconds
#
# Revision: 1
# Processed by: cddbd v1.4PL0 Copyright (c) Steve Scherf et al.
# Submitted via: CDex 1.51
#
DISCID=5a0a9a07
DTITLE=Joe Finch Trio - Pictures
DYEAR=2002
DGENRE=Jazz
TTITLE0=Shanghai
TTITLE1=Free Time
TTITLE2=Matinal
TTITLE3=Sugar Beat
TTITLE4=London Retro
TTITLE5=Nature Boy
TTITLE6=Switch On The Light
EXTD=YEAR: 2002
EXTT0=
EXTT1=
EXTT2=
EXTT3=
EXTT4=
EXTT5=
EXTT6=
PLAYORDER=
